<?xml version="1.0" encoding="utf-8"?>
<!-- Generator: Adobe Illustrator 23.1.0, SVG Export Plug-In . SVG Version: 6.00 Build 0)  -->
<svg version="1.1" id="Capa_1" xmlns="http://www.w3.org/2000/svg" xmlns:xlink="http://www.w3.org/1999/xlink" x="0px" y="0px"
	 viewBox="0 0 1200 1200" style="enable-background:new 0 0 1200 1200;" xml:space="preserve">
<style type="text/css">
	.st0{fill:#2F374B;}
</style>
<g>
	<g>
		<g>
			<g>
				<g>
					<g>
						<path class="st0" d="M798.32,608.87l-26.04-26.04l281.58-281.59c17.04-17.04,22.09-40.78,11.04-51.84l-2.48-2.48
							c-11.05-11.05-34.8-6-51.84,11.04L729,539.54l-26.04-26.04l281.58-281.59c14.68-14.68,33.03-24.22,51.67-26.86
							c20.29-2.87,39.33,2.9,52.26,15.83l2.48,2.48c12.93,12.93,18.7,31.98,15.83,52.26c-2.64,18.64-12.18,36.99-26.86,51.67
							L798.32,608.87z"/>
					</g>
				</g>
			</g>
		</g>
		<g>
			<g>
				<g>
					<g>
						<path class="st0" d="M646.89,995.67c-17.24,0-34.48-6.57-47.6-19.69L337.46,714.16c-26.25-26.25-26.25-68.96,0-95.2l3.18-3.19
							l313.01-98.85c21.79-20.52,51.81-36.84,69.51-19.13l92.5,92.5c5.33,5.33,12.69,17.58,2.1,39.73
							c-4.58,9.58-12.04,20.03-21.24,29.78L697.67,972.8l-3.19,3.18C681.36,989.11,664.13,995.67,646.89,995.67z M360.86,648.01
							c-9.17,11.94-8.29,29.17,2.64,40.1l261.82,261.82c10.93,10.92,28.16,11.81,40.1,2.64l98.64-312.32l3.19-3.19
							c10.67-10.67,16.18-19.95,18.19-24.92L701.3,528c-4.97,2.01-14.26,7.52-24.93,18.19l-3.18,3.19L360.86,648.01z"/>
					</g>
				</g>
			</g>
		</g>
		<g>
			<g>
				<g>
					<g>
						
							<rect x="704.11" y="508.65" transform="matrix(0.7071 -0.7071 0.7071 0.7071 -207.232 684.3995)" class="st0" width="36.83" height="167.39"/>
					</g>
				</g>
			</g>
		</g>
		<g>
			<g>
				<g>
					<g>
						
							<rect x="381.74" y="682.58" transform="matrix(0.8858 -0.464 0.464 0.8858 -271.9875 296.512)" class="st0" width="169.68" height="36.83"/>
					</g>
				</g>
			</g>
		</g>
		<g>
			<g>
				<g>
					<g>
						
							<rect x="517.35" y="807.64" transform="matrix(0.4479 -0.8941 0.8941 0.4479 -387.9807 1023.821)" class="st0" width="235.28" height="36.83"/>
					</g>
				</g>
			</g>
		</g>
		<g>
			<g>
				<g>
					<g>
						
							<rect x="465.03" y="777.62" transform="matrix(0.7163 -0.6978 0.6978 0.7163 -411.2651 580.6082)" class="st0" width="86.61" height="36.83"/>
					</g>
				</g>
			</g>
		</g>
	</g>
	<g>
		<g>
			<g>
				<g>
					<path class="st0" d="M619.39,533.68l-30.52-20.61c12.33-18.25,18.84-39.59,18.84-61.71c0-60.87-49.52-110.38-110.38-110.38
						s-110.38,49.52-110.38,110.38h-36.83c0-81.17,66.04-147.22,147.22-147.22s147.22,66.04,147.22,147.22
						C644.54,480.86,635.85,509.32,619.39,533.68z"/>
				</g>
			</g>
		</g>
	</g>
	<g>
		<g>
			<g>
				<g>
					<path class="st0" d="M288.46,777.27c-70.94,0-128.65-57.71-128.65-128.65c0-70.94,57.71-128.65,128.65-128.65
						c42.63,0,82.42,21.07,106.43,56.36l-30.45,20.72c-17.15-25.2-45.56-40.25-75.98-40.25c-50.63,0-91.82,41.19-91.82,91.82
						c0,50.63,41.19,91.82,91.82,91.82c12.57,0,24.74-2.49,36.17-7.39l14.52,33.85C323.11,773.78,306.06,777.27,288.46,777.27z"/>
				</g>
			</g>
		</g>
	</g>
	<g>
		<g>
			<g>
				<g>
					<path class="st0" d="M196.8,828.33c-57.5,0-104.29-46.78-104.29-104.28c0-33.31,16.11-64.88,43.1-84.46l21.63,29.81
						c-17.47,12.68-27.9,33.1-27.9,54.65c0,37.19,30.26,67.45,67.45,67.45c20.48,0,39.63-9.16,52.52-25.12l28.65,23.14
						C258.05,814.18,228.46,828.33,196.8,828.33z"/>
				</g>
			</g>
		</g>
	</g>
	<g>
		<g>
			<g>
				<g>
					<path class="st0" d="M210.72,422.2c-45.99,0-83.4-37.41-83.4-83.39s37.41-83.39,83.4-83.39c45.98,0,83.39,37.41,83.39,83.39
						S256.7,422.2,210.72,422.2z M210.72,292.25c-25.68,0-46.57,20.89-46.57,46.56c0,25.68,20.89,46.56,46.57,46.56
						s46.56-20.89,46.56-46.56C257.28,313.13,236.4,292.25,210.72,292.25z"/>
				</g>
			</g>
		</g>
	</g>
	<g>
		<g>
			<g>
				<g>
					<circle class="st0" cx="359.25" cy="299.36" r="13.92"/>
				</g>
			</g>
		</g>
	</g>
	<g>
		<g>
			<g>
				<g>
					<circle class="st0" cx="378.97" cy="934.07" r="24.37"/>
				</g>
			</g>
		</g>
	</g>
</g>
</svg>
